<svg xmlns="http://www.w3.org/2000/svg" width="777.647" height="752.43" viewBox="0 0 777.647 752.43">
  <g id="BlueBlob" transform="translate(569.003 -313.001)">
    <path id="Path_26" data-name="Path 26" d="M942.026,996.28C700.2,828.9,525.166,464.994,1051.49,274.61c37.326-13.5,145.407-20.625,177.432,2.825C1348.27,364.823,1474.04,440.443,1484.58,519.1c13.141,98.075-81.405,19.871-93.263,48.4-4.808,11.858,16.345,8.974,30.126,24.677s3.2,42.625-41.024,49.036-24.677,68.586,26.28,97.43-4.808,129.155-142.3,136.527c-52.766,2.829-88.3,30.107-112.061,62.654C1106.74,1000.27,1023.6,1034.1,953,1002.56a91.164,91.164,0,0,1-10.974-6.28Z" transform="translate(-1277.185 50.881)" fill="#5300f2"/>
    <path id="Path_24" data-name="Path 24" d="M11.16-1.329C20.38-4.67,21.869,3.465,21.869,9.38A10.709,10.709,0,0,1,11.16,20.089C5.246,20.089.716,18.86.716,12.945S1.941,2.011,11.16-1.329Z" transform="translate(166.287 669.623)" fill="#5300f2" opacity="0.5"/>
    <path id="Path_27" data-name="Path 27" d="M3.428,0C5.321,0,8.074,3.264,8.074,5.157s-2.753,1.7-4.647,1.7A3.429,3.429,0,0,1,3.428,0Z" transform="translate(162 656.859)" fill="#5300f2" opacity="0.5"/>
    <path id="Path_28" data-name="Path 28" d="M5.315,3.473c0,2.582-1.542,3.441-4.674,4.674-3.653,1.269-6.819,7.042-9.612,0a21.962,21.962,0,0,1-1.676-9.531C-10.088-6.6,5.315.892,5.315,3.473Z" transform="translate(184.731 646.842)" fill="#5300f2" opacity="0.5"/>
    <circle id="Ellipse_17" data-name="Ellipse 17" cx="2.5" cy="2.5" r="2.5" transform="translate(196 666)" fill="#5300f2" opacity="0.5"/>
    <circle id="Ellipse_18" data-name="Ellipse 18" cx="1.5" cy="1.5" r="1.5" transform="translate(193 672)" fill="#5300f2" opacity="0.5"/>
    <path id="Path_109" data-name="Path 109" d="M26.21,891s45.825-8.759,63.327-24.955" transform="matrix(0.999, 0.035, -0.035, 0.999, 30.695, -1.485)" fill="none" stroke="#fff" stroke-linecap="round" stroke-width="3"/>
    <path id="Path_110" data-name="Path 110" d="M97.669,863.437A73.352,73.352,0,0,0,111.224,851.9" transform="translate(-56.574 4.375) rotate(-4.012)" fill="none" stroke="#fff" stroke-linecap="round" stroke-width="3"/>
    <circle id="Ellipse_33" data-name="Ellipse 33" cx="1.5" cy="1.5" r="1.5" transform="translate(94 862)" fill="#fff"/>
  </g>
</svg>
