<svg xmlns="http://www.w3.org/2000/svg" xmlns:xlink="http://www.w3.org/1999/xlink" width="787.452" height="296.643" viewBox="0 0 787.452 296.643">
  <defs>
    <clipPath id="clip-path">
      <path id="path24" d="M0-77.612H787.452V219.031H0Z" transform="translate(0 77.612)"/>
    </clipPath>
  </defs>
  <g id="buffl-logo-black" transform="translate(17.983 -241.037)">
    <g id="g18" transform="translate(-17.983 241.037)">
      <g id="g20" transform="translate(0 0)">
        <g id="g22" clip-path="url(#clip-path)">
          <g id="g28" transform="translate(68.808 82.634)">
            <path id="path30" d="M52.009,76.8c-2.621,2.949-6.716,3.767-11.467,3.767H7.944V48.3H40.87c4.423,0,8.355,1.147,10.974,3.932,2.621,2.949,3.932,7.862,3.932,12.777,0,4.423-1.146,9.01-3.767,11.794M7.944-5.428H36.118c4.752,0,9.01,1.311,11.3,3.767s3.769,7.208,3.769,12.122c0,5.9-1.475,10.648-3.769,13.268a11.739,11.739,0,0,1-9.009,3.6H7.944ZM59.216,35.2a21.464,21.464,0,0,0,12.942-7.208c4.913-5.9,6.879-14.414,6.879-23.424S76.416-12.307,71.83-17.222c-5.733-6.225-14.252-9.993-27.357-9.993h-62.9V102.522h67c13.433,0,21.458-4.1,27.684-10.81,4.586-5.079,7.7-14.58,7.7-24.408,0-9.01-1.8-17.528-6.062-22.441A28.55,28.55,0,0,0,59.216,35.2" transform="translate(18.429 27.215)"/>
          </g>
          <g id="g32" transform="translate(210.175 82.635)">
            <path id="path34" d="M52.735,66.4c0,11.959-8.518,18.84-21.95,18.84-14.906,0-22.606-7.045-22.606-19V-23.529H-18.686v92.06c0,27.356,20.312,39.313,49.143,39.313,29.485,0,49.142-12.939,49.142-38.166V-23.529H52.735Z" transform="translate(18.686 23.529)"/>
          </g>
          <g id="g36" transform="translate(512.079 82.634)">
            <path id="path38" d="M0,95.793H26.865V42.72h54.55V18.8H26.865V-10.19H84.69V-33.943H0Z" transform="translate(0 33.943)"/>
          </g>
          <g id="g40" transform="translate(636.413 82.634)">
            <path id="path42" d="M19.957,78.618V-27.858H-7.071V101.879H75.159V78.618Z" transform="translate(7.071 27.858)"/>
          </g>
          <g id="g44" transform="translate(353.343 82.634)">
            <path id="path46" d="M19.836,0H-7.029V129.737H19.836V76.744C54.945,89.873,87.658,90.275,123.024,78.06V54.306C87.658,66.522,54.945,66.123,19.836,52.993V23.753c36.347,13.53,70.06,13.5,106.337,0V0C89.9,13.5,56.18,13.531,19.836,0" transform="translate(7.029)"/>
          </g>
        </g>
      </g>
    </g>
  </g>
</svg>
