<svg xmlns="http://www.w3.org/2000/svg" width="638.394" height="593.286" viewBox="0 0 638.394 593.286">
  <g id="GreenBlob" transform="translate(-1411.005 -226)">
    <g id="Group_22" data-name="Group 22" transform="translate(1499 226.045)">
      <path id="Path_12" data-name="Path 12" d="M296.3,589.8c-59.6-10.7-144.6-22.9-187.2-153.4C63.6,297.4,0,297.8,0,169.4,0,69,128.7-2.1,296.3,0,665.2,18,603.6,645,296.3,589.8Z" fill="#00f4b2"/>
      <g id="Group_21" data-name="Group 21">
        <g id="Group_16" data-name="Group 16">
          <g id="Group_15" data-name="Group 15">
            <path id="Path_13" data-name="Path 13" d="M31.5,114.5C39.7,97.7,54,85.1,69.3,74.7c4.4-3,8.9-5.8,13.5-8.6,2.8-1.7.2-6-2.5-4.3C63.9,71.7,47.6,82.9,35.8,98.2A81.72,81.72,0,0,0,27.2,112a2.487,2.487,0,1,0,4.3,2.5Z" fill="#fff"/>
          </g>
        </g>
        <g id="Group_18" data-name="Group 18">
          <g id="Group_17" data-name="Group 17">
            <path id="Path_14" data-name="Path 14" d="M21.5,122.8c-1.2,2.7-2.3,5.4-3.5,8a3.079,3.079,0,0,0-.3,1.9,2.827,2.827,0,0,0,1.1,1.5,2.588,2.588,0,0,0,1.9.3,2.827,2.827,0,0,0,1.5-1.1c1.2-2.7,2.3-5.4,3.5-8a3.079,3.079,0,0,0,.3-1.9,2.827,2.827,0,0,0-1.1-1.5,2.588,2.588,0,0,0-1.9-.3,1.923,1.923,0,0,0-1.5,1.1Z" fill="#fff"/>
          </g>
        </g>
        <g id="Group_20" data-name="Group 20">
          <g id="Group_19" data-name="Group 19">
            <path id="Path_15" data-name="Path 15" d="M13.4,142.7a181.653,181.653,0,0,0-4.1,23.2,2.611,2.611,0,0,0,2.5,2.5,2.54,2.54,0,0,0,2.5-2.5A161.968,161.968,0,0,1,18.2,144c.8-3-4.1-4.4-4.8-1.3Z" fill="#fff"/>
          </g>
        </g>
      </g>
    </g>
    <g id="blob-shape" transform="translate(1462 501.321)" opacity="0.5">
      <path id="Path_286" data-name="Path 286" d="M-230.319-215.932c2.948,2.912,5.14,6.618,5.373,10.556a14.738,14.738,0,0,1-4.441,11.022,15.44,15.44,0,0,1-11.153,4.426c-4.033-.138-7.928-2.068-11.532-4.98s-6.916-6.807-7.433-11.219,1.769-9.333,5.373-12.245a16.969,16.969,0,0,1,12.842-3.2A19.487,19.487,0,0,1-230.319-215.932Z" transform="translate(259.575 221.753)" fill="#2eebb8"/>
    </g>
    <g id="blob-shape_1_" data-name="blob-shape (1)" transform="translate(1411 527.794)" opacity="0.5">
      <path id="Path_287" data-name="Path 287" d="M-159.359-220.127c6.576,5.368,10.964,14.131,10.7,22.625s-5.193,16.721-11.769,22.3a34.793,34.793,0,0,1-22.907,8.427c-8.092-.121-16.063-3.341-20.934-8.924s-6.656-13.567-7.354-22.236-.309-18.022,4.563-23.39,14.238-6.75,23.31-6.441S-165.935-225.494-159.359-220.127Z" transform="translate(211.896 227.803)" fill="#2eebb8"/>
    </g>
    <g id="blob-shape_2_" data-name="blob-shape (2)" transform="translate(1655.831 690.206)" opacity="0.5">
      <path id="Path_288" data-name="Path 288" d="M-206.307-188.226a6.673,6.673,0,0,1,2.343,4.085,9.7,9.7,0,0,1-.573,5.135,8.01,8.01,0,0,1-3.417,4.483,5.756,5.756,0,0,1-5.464-.281c-1.564-.995-2.466-2.844-3.348-4.6s-1.756-3.4-1.482-4.837,1.7-2.645,3.125-3.554a9.574,9.574,0,0,1,4.411-1.629,6.449,6.449,0,0,1,4.405,1.2Z" fill="#2eebb8"/>
    </g>
    <g id="blob-shape_3_" data-name="blob-shape (3)" transform="matrix(0.766, 0.643, -0.643, 0.766, 1418.194, 768.427)" opacity="0.5">
      <path id="Path_289" data-name="Path 289" d="M-151.134-199.538a6.688,6.688,0,0,1-.4,4.962,9.567,9.567,0,0,1-2.541,3.344c-1.262,1.16-3.093,2.592-4.8,2.32a4.3,4.3,0,0,1-3.237-4.023c.03-1.784,1.665-3.386,3.08-5.578s2.613-4.975,4.074-5.187S-151.771-201.551-151.134-199.538Z" fill="#2eebb8"/>
    </g>
  </g>
</svg>
