<svg xmlns="http://www.w3.org/2000/svg" width="14.11" height="14.918" viewBox="0 0 14.11 14.918">
  <g id="trash" transform="translate(-13.84)">
    <g id="Group_30" data-name="Group 30" transform="translate(15.252 2.87)">
      <g id="Group_29" data-name="Group 29">
        <path id="Path_200" data-name="Path 200" d="M72.434,98.512l-.951,10.838H64.51l-.951-10.838-1.2.106.968,11.035a1.018,1.018,0,0,0,1,.907h7.338a1.02,1.02,0,0,0,1.006-.915l.968-11.027Z" transform="translate(-62.354 -98.512)" fill="#5300f2"/>
      </g>
    </g>
    <g id="Group_32" data-name="Group 32" transform="translate(17.668)">
      <g id="Group_31" data-name="Group 31">
        <path id="Path_201" data-name="Path 201" d="M150.74,0H146.3a1.009,1.009,0,0,0-1,1.008V2.923h1.21V1.21h4.032V2.923h1.21V1.008A1.009,1.009,0,0,0,150.74,0Z" transform="translate(-145.297)" fill="#5300f2"/>
      </g>
    </g>
    <g id="Group_34" data-name="Group 34" transform="translate(13.838 2.318)">
      <g id="Group_33" data-name="Group 33">
        <path id="Path_202" data-name="Path 202" d="M27.345,79.568h-12.9a.6.6,0,1,0,0,1.21h12.9a.605.605,0,0,0,0-1.21Z" transform="translate(-13.838 -79.568)" fill="#5300f2"/>
      </g>
    </g>
  </g>
</svg>
